<?xml version="1.0" standalone="no"?>
<!DOCTYPE svg PUBLIC "-//W3C//DTD SVG 20010904//EN"
 "http://www.w3.org/TR/2001/REC-SVG-20010904/DTD/svg10.dtd">
<svg version="1.0" xmlns="http://www.w3.org/2000/svg"
 width="260.000000pt" height="260.000000pt" viewBox="0 0 260.000000 260.000000"
 preserveAspectRatio="xMidYMid meet">
<metadata>
Created by potrace 1.11, written by Peter Selinger 2001-2013
</metadata>
<g transform="translate(0.000000,260.000000) scale(0.100000,-0.100000)"
fill="#000000" stroke="none">
<path d="M1081 2583 c-160 -25 -358 -104 -503 -200 -293 -195 -506 -523 -562
-868 -19 -121 -15 -372 8 -480 115 -527 530 -925 1061 -1019 63 -11 219 -14
722 -15 628 -1 643 -1 685 19 25 12 56 38 73 63 l30 42 2 645 c2 638 1 669
-31 834 -10 54 -49 161 -91 253 -176 379 -555 665 -965 728 -109 16 -321 16
-429 -2z m429 -163 c200 -43 343 -109 490 -224 218 -172 362 -407 420 -690 17
-84 19 -141 18 -709 -1 -432 -4 -620 -12 -626 -6 -5 -294 -8 -641 -6 -528 1
-642 4 -705 17 -323 68 -597 265 -765 550 -65 110 -109 229 -141 383 -9 48
-12 280 -4 327 5 24 10 57 13 73 34 204 139 408 295 569 186 193 419 310 692
349 52 8 287 -1 340 -13z"/>
<path d="M1218 1859 c-350 -56 -564 -404 -453 -736 80 -239 288 -387 540 -386
99 0 210 31 285 78 22 14 43 25 47 25 4 0 89 -81 189 -181 l181 -181 57 58 57
58 -183 183 -183 183 18 27 c123 188 120 447 -5 631 -120 175 -346 275 -550
241z m141 -163 c140 -13 285 -138 327 -282 97 -332 -251 -627 -561 -475 -292
144 -301 559 -15 715 45 24 162 56 185 50 6 -1 34 -5 64 -8z"/>
</g>
</svg>
